<?xml version="1.0" encoding="UTF-8" standalone="no"?>
<!DOCTYPE svg PUBLIC "-//W3C//DTD SVG 1.1//EN" "http://www.w3.org/Graphics/SVG/1.1/DTD/svg11.dtd">
<svg width="100%" height="100%" viewBox="0 0 864 864" version="1.1" xmlns="http://www.w3.org/2000/svg" xmlns:xlink="http://www.w3.org/1999/xlink" xml:space="preserve" xmlns:serif="http://www.serif.com/" style="fill-rule:evenodd;clip-rule:evenodd;stroke-linejoin:round;stroke-miterlimit:2;">
    <g transform="matrix(0.819721,0,0,0.819721,263.924,136.538)">
        <path d="M288.147,207.534L313.128,207.534C313.128,207.534 301.76,186.064 305.162,146.566L294.487,146.519L294.487,101.771L307.368,101.771C307.368,101.771 223.934,34.5 203.992,14.556C203.992,14.556 134.196,73.758 99.672,101.771L113.544,101.771L113.544,145.717L104.242,145.676C104.242,145.676 105.997,199.952 90.843,207.534L121.886,207.534C122.586,349.829 115.298,688.515 73.794,797.147C73.794,797.147 150.833,850.192 330.177,802.203C330.177,802.203 272.93,499.805 288.147,207.534ZM166.814,145.953L134.685,145.811L134.685,101.771L166.814,101.771L166.814,145.953ZM195.429,401.63L178.908,401.63L178.908,373.097L195.429,373.097L195.429,401.63ZM195.429,341.561L178.908,341.561L178.908,313.025L195.429,313.025L195.429,341.561ZM195.429,282.992L178.908,282.992L178.908,254.456L195.429,254.456L195.429,282.992ZM220.08,146.189L187.951,146.047L187.951,101.771L220.08,101.771L220.08,146.189ZM273.348,146.425L241.219,146.283L241.219,101.771L273.348,101.771L273.348,146.425Z" style="fill:rgb(6,118,161);fill-rule:nonzero;"/>
    </g>
</svg>
